<?xml version="1.0" encoding="UTF-8" standalone="no"?>
<svg
   xmlns:dc="http://purl.org/dc/elements/1.1/"
   xmlns:cc="http://creativecommons.org/ns#"
   xmlns:rdf="http://www.w3.org/1999/02/22-rdf-syntax-ns#"
   xmlns:svg="http://www.w3.org/2000/svg"
   xmlns="http://www.w3.org/2000/svg"
   xmlns:sodipodi="http://sodipodi.sourceforge.net/DTD/sodipodi-0.dtd"
   xmlns:inkscape="http://www.inkscape.org/namespaces/inkscape"
   version="1.1"
   width="1700.7874"
   height="850.3937"
   id="svg388"
   sodipodi:docname="20200116_corrugated polypropylene base.svg"
   inkscape:version="0.92.4 (5da689c313, 2019-01-14)">
  <metadata
     id="metadata394">
    <rdf:RDF>
      <cc:Work
         rdf:about="">
        <dc:format>image/svg+xml</dc:format>
        <dc:type
           rdf:resource="http://purl.org/dc/dcmitype/StillImage" />
        <dc:title></dc:title>
      </cc:Work>
    </rdf:RDF>
  </metadata>
  <defs
     id="defs392" />
  <sodipodi:namedview
     pagecolor="#ffffff"
     bordercolor="#666666"
     borderopacity="1"
     objecttolerance="10"
     gridtolerance="10"
     guidetolerance="10"
     inkscape:pageopacity="0"
     inkscape:pageshadow="2"
     inkscape:window-width="1920"
     inkscape:window-height="1057"
     id="namedview390"
     showgrid="false"
     inkscape:zoom="1.349963"
     inkscape:cx="489.46832"
     inkscape:cy="549.30674"
     inkscape:window-x="-8"
     inkscape:window-y="-8"
     inkscape:window-maximized="1"
     inkscape:current-layer="svg388" />
  <g
     id="Layer1000" />
  <path
     d="  M25.7596,455.2571 L25.7596,30.0251 L851.5281,30.0251 L851.5281,455.2571 L25.7596,455.2571 Z"
     style="stroke-width: 0.2160; stroke: #ff0000; stroke-dasharray: none; stroke-linecap: butt; stroke-linejoin: miter; fill: none; "
     id="path3" />
  <path
     d="  M275.3552,123.6343 L275.3552,69.7760 L491.9632,69.7760 L491.9632,123.6343 L275.3552,123.6343 Z"
     style="stroke-width: 0.2160; stroke: #ff0000; stroke-dasharray: none; stroke-linecap: butt; stroke-linejoin: miter; fill: none; "
     id="path5" />
  <g
     id="Layer1001">
    <path
       d="  M47.8097,165.9611 L47.8097,103.6091 L58.7537,103.6091 L58.7537,165.9611 L47.8097,165.9611 Z"
       style="stroke-width: 0.2160; stroke: #ff0000; stroke-dasharray: none; stroke-linecap: butt; stroke-linejoin: miter; fill: none; "
       id="path7" />
    <path
       d="  M47.8097,69.6251 L47.8097,29.9531 L58.7537,29.9531 L58.7537,69.6251 L47.8097,69.6251 Z"
       style="stroke-width: 0.2160; stroke: #ff0000; stroke-dasharray: none; stroke-linecap: butt; stroke-linejoin: miter; fill: none; "
       id="path9" />
    <path
       d="  M47.8097,262.3691 L47.8097,200.0171 L58.7537,200.0171 L58.7537,262.3691 L47.8097,262.3691 Z"
       style="stroke-width: 0.2160; stroke: #ff0000; stroke-dasharray: none; stroke-linecap: butt; stroke-linejoin: miter; fill: none; "
       id="path11" />
    <path
       d="  M47.8097,358.7051 L47.8097,296.3531 L58.7537,296.3531 L58.7537,358.7051 L47.8097,358.7051 Z"
       style="stroke-width: 0.2160; stroke: #ff0000; stroke-dasharray: none; stroke-linecap: butt; stroke-linejoin: miter; fill: none; "
       id="path13" />
  </g>
  <path
     d="  M233.0657,166.1051 L233.0657,103.7531 L244.0097,103.7531 L244.0097,166.1051 L233.0657,166.1051 Z"
     style="stroke-width: 0.2160; stroke: #ff0000; stroke-dasharray: none; stroke-linecap: butt; stroke-linejoin: miter; fill: none; "
     id="path16" />
  <path
     d="  M233.0657,69.6971 L233.0657,30.0251 L244.0097,30.0251 L244.0097,69.6971 L233.0657,69.6971 Z"
     style="stroke-width: 0.2160; stroke: #ff0000; stroke-dasharray: none; stroke-linecap: butt; stroke-linejoin: miter; fill: none; "
     id="path18" />
  <path
     d="  M233.0657,262.5131 L233.0657,200.1611 L244.0097,200.1611 L244.0097,262.5131 L233.0657,262.5131 Z"
     style="stroke-width: 0.2160; stroke: #ff0000; stroke-dasharray: none; stroke-linecap: butt; stroke-linejoin: miter; fill: none; "
     id="path20" />
  <path
     d="  M233.0657,358.8491 L233.0657,296.4971 L244.0097,296.4971 L244.0097,358.8491 L233.0657,358.8491 Z"
     style="stroke-width: 0.2160; stroke: #ff0000; stroke-dasharray: none; stroke-linecap: butt; stroke-linejoin: miter; fill: none; "
     id="path22" />
  <g
     id="Layer1002">
    <path
       d="  M522.7937,166.1051 L522.7937,103.7531 L533.7377,103.7531 L533.7377,166.1051 L522.7937,166.1051 Z"
       style="stroke-width: 0.2160; stroke: #ff0000; stroke-dasharray: none; stroke-linecap: butt; stroke-linejoin: miter; fill: none; "
       id="path24" />
    <path
       d="  M522.7937,69.6971 L522.7937,30.0251 L533.7377,30.0251 L533.7377,69.6971 L522.7937,69.6971 Z"
       style="stroke-width: 0.2160; stroke: #ff0000; stroke-dasharray: none; stroke-linecap: butt; stroke-linejoin: miter; fill: none; "
       id="path26" />
    <path
       d="  M522.7937,262.5131 L522.7937,200.1611 L533.7377,200.1611 L533.7377,262.5131 L522.7937,262.5131 Z"
       style="stroke-width: 0.2160; stroke: #ff0000; stroke-dasharray: none; stroke-linecap: butt; stroke-linejoin: miter; fill: none; "
       id="path28" />
    <path
       d="  M522.7937,358.8491 L522.7937,296.4971 L533.7377,296.4971 L533.7377,358.8491 L522.7937,358.8491 Z"
       style="stroke-width: 0.2160; stroke: #ff0000; stroke-dasharray: none; stroke-linecap: butt; stroke-linejoin: miter; fill: none; "
       id="path30" />
  </g>
  <g
     id="Layer1003">
    <path
       d="  M671.9737,165.9611 L671.9737,103.6091 L682.9177,103.6091 L682.9177,165.9611 L671.9737,165.9611 Z"
       style="stroke-width: 0.2160; stroke: #ff0000; stroke-dasharray: none; stroke-linecap: butt; stroke-linejoin: miter; fill: none; "
       id="path33" />
    <path
       d="  M671.9737,69.6251 L671.9737,29.9531 L682.9177,29.9531 L682.9177,69.6251 L671.9737,69.6251 Z"
       style="stroke-width: 0.2160; stroke: #ff0000; stroke-dasharray: none; stroke-linecap: butt; stroke-linejoin: miter; fill: none; "
       id="path35" />
    <path
       d="  M671.9737,262.3691 L671.9737,200.0171 L682.9177,200.0171 L682.9177,262.3691 L671.9737,262.3691 Z"
       style="stroke-width: 0.2160; stroke: #ff0000; stroke-dasharray: none; stroke-linecap: butt; stroke-linejoin: miter; fill: none; "
       id="path37" />
    <path
       d="  M671.9737,358.7051 L671.9737,296.3531 L682.9177,296.3531 L682.9177,358.7051 L671.9737,358.7051 Z"
       style="stroke-width: 0.2160; stroke: #ff0000; stroke-dasharray: none; stroke-linecap: butt; stroke-linejoin: miter; fill: none; "
       id="path39" />
  </g>
  <path
     d="  M274.3526,220.7705 L274.3526,166.9123 L490.9606,166.9123 L490.9606,220.7705 L274.3526,220.7705 Z"
     style="stroke-width: 0.2160; stroke: #ff0000; stroke-dasharray: none; stroke-linecap: butt; stroke-linejoin: miter; fill: none; "
     id="path42" />
  <path
     d="  M275.2577,317.6247 L275.2577,263.7664 L491.8657,263.7664 L491.8657,317.6247 L275.2577,317.6247 Z"
     style="stroke-width: 0.2160; stroke: #ff0000; stroke-dasharray: none; stroke-linecap: butt; stroke-linejoin: miter; fill: none; "
     id="path44" />
  <path
     d="  M275.2889,414.1586 L275.2889,360.3003 L491.8969,360.3003 L491.8969,414.1586 L275.2889,414.1586 Z"
     style="stroke-width: 0.2160; stroke: #ff0000; stroke-dasharray: none; stroke-linecap: butt; stroke-linejoin: miter; fill: none; "
     id="path46" />
  <path
     d="  M275.3552,129.3036 L275.3552,64.1068 L491.9632,64.1068 L491.9632,129.3036 L275.3552,129.3036 Z"
     style="stroke-width: 0.2160; stroke: #9900cc; stroke-dasharray: none; stroke-linecap: butt; stroke-linejoin: miter; fill: none; "
     id="path369" />
  <path
     d="  M274.3526,226.4398 L274.3526,161.2430 L490.9606,161.2430 L490.9606,226.4398 L274.3526,226.4398 Z"
     style="stroke-width: 0.2160; stroke: #9900cc; stroke-dasharray: none; stroke-linecap: butt; stroke-linejoin: miter; fill: none; "
     id="path371" />
  <path
     d="  M275.2577,323.2940 L275.2577,258.0972 L491.8657,258.0972 L491.8657,323.2940 L275.2577,323.2940 Z"
     style="stroke-width: 0.2160; stroke: #9900cc; stroke-dasharray: none; stroke-linecap: butt; stroke-linejoin: miter; fill: none; "
     id="path373" />
  <path
     d="  M275.2889,418.9775 L275.2889,353.7806 L491.8969,353.7806 L491.8969,418.9775 L275.2889,418.9775 Z"
     style="stroke-width: 0.2160; stroke: #9900cc; stroke-dasharray: none; stroke-linecap: butt; stroke-linejoin: miter; fill: none; "
     id="path375" />
  <g
     id="Layer1013">
    <path
       d="  M822.1232,166.2812 L822.1232,103.9292 L833.0672,103.9292 L833.0672,166.2812 L822.1232,166.2812 Z"
       style="stroke-width: 0.2160; stroke: #ff0000; stroke-dasharray: none; stroke-linecap: butt; stroke-linejoin: miter; fill: none; "
       id="path379" />
    <path
       d="  M822.1232,69.9452 L822.1232,30.2732 L833.0672,30.2732 L833.0672,69.9452 L822.1232,69.9452 Z"
       style="stroke-width: 0.2160; stroke: #ff0000; stroke-dasharray: none; stroke-linecap: butt; stroke-linejoin: miter; fill: none; "
       id="path381" />
    <path
       d="  M822.1232,262.6892 L822.1232,200.3372 L833.0672,200.3372 L833.0672,262.6892 L822.1232,262.6892 Z"
       style="stroke-width: 0.2160; stroke: #ff0000; stroke-dasharray: none; stroke-linecap: butt; stroke-linejoin: miter; fill: none; "
       id="path383" />
    <path
       d="  M822.1232,359.0252 L822.1232,296.6732 L833.0672,296.6732 L833.0672,359.0252 L822.1232,359.0252 Z"
       style="stroke-width: 0.2160; stroke: #ff0000; stroke-dasharray: none; stroke-linecap: butt; stroke-linejoin: miter; fill: none; "
       id="path385" />
  </g>
</svg>
